<svg enable-background="new 0 0 73.9 73.9" viewBox="0 0 73.9 73.9" xmlns="http://www.w3.org/2000/svg"><path d="m37 26.5c-5.8 0-10.4 4.7-10.4 10.5s4.7 10.4 10.5 10.4 10.4-4.7 10.4-10.4c-.1-5.8-4.7-10.5-10.5-10.5z" fill="none"/><path d="m55.1 18.5-3.2 2c-2.7 1.6-6.1.8-7.7-1.9-.5-.9-.8-1.9-.8-2.9v-3.8h-12.8v3.8c0 3.1-2.5 5.6-5.6 5.6-1 0-2.1-.3-2.9-.8l-3.2-2-6.6 10.9 4.6 2.8c2.6 1.6 3.5 5.1 1.9 7.7-.5.8-1.1 1.4-1.9 1.9l-4.6 2.8 6.6 10.8 3.2-2c2.7-1.6 6.1-.8 7.7 1.9.5.9.8 1.9.8 2.9v3.8h12.7v-3.8c0-3.1 2.5-5.6 5.6-5.6 1 0 2.1.3 3 .8l3.2 2 6.6-10.9-4.7-2.7c-2.6-1.6-3.5-5.1-1.9-7.7.5-.8 1.1-1.4 1.9-1.9l4.6-2.8zm-18.1 30.9c-6.9 0-12.4-5.6-12.4-12.5s5.6-12.4 12.5-12.4 12.3 5.6 12.3 12.5c0 6.9-5.6 12.4-12.4 12.4z" fill="none"/><g fill="#a7a9ac"><path d="m58.1 33.9 5.5-3.3c.5-.3.6-.9.3-1.4l-7.6-12.5c-.3-.5-.9-.6-1.4-.4l-4.1 2.5c-1.7 1-3.9.5-5-1.2-.3-.6-.5-1.2-.5-1.9v-4.8c0-.6-.4-1-1-1h-14.7c-.6 0-1 .4-1 1v4.8c0 2-1.6 3.6-3.6 3.6-.7 0-1.3-.2-1.9-.5l-4.1-2.5c-.5-.3-1.1-.1-1.4.3l-7.6 12.5c-.3.5-.1 1.1.3 1.4l5.5 3.3c1.7 1 2.3 3.3 1.2 5-.3.5-.7.9-1.2 1.2l-5.5 3.3c-.5.3-.6.9-.3 1.4l7.6 12.5c.3.5.9.6 1.4.3l4.1-2.5c1.7-1 3.9-.5 5 1.2.3.6.5 1.2.5 1.9v4.9c0 .6.4 1 1 1h14.7c.6 0 1-.4 1-1v-4.8c0-2 1.6-3.6 3.6-3.6.7 0 1.3.2 1.9.5l4.1 2.5c.5.3 1.1.1 1.4-.3l7.6-12.5c.3-.5.1-1.1-.3-1.4l-5.5-3.3c-1.7-1-2.3-3.3-1.2-5 .3-.5.7-.9 1.2-1.2zm-3.8 3.1c0 2 1 3.8 2.7 4.8l4.6 2.8-6.6 10.8-3.2-2c-2.6-1.6-6.1-.8-7.7 1.9-.5.9-.8 1.9-.8 2.9v3.8h-12.7v-3.8c0-3.1-2.5-5.6-5.6-5.6-1 0-2 .3-2.9.8l-3.2 2-6.6-10.9 4.6-2.8c2.6-1.6 3.5-5.1 1.9-7.7-.5-.8-1.1-1.4-1.9-1.9l-4.6-2.8 6.6-10.8 3.2 2c2.6 1.6 6.1.8 7.7-1.9.5-.9.8-1.9.8-2.9v-3.8h12.7v3.8c0 3.1 2.5 5.6 5.6 5.6 1 0 2.1-.3 3-.8l3.2-2 6.6 10.9-4.7 2.8c-1.7 1-2.7 2.8-2.7 4.8z"/><path d="m37 24.5c-6.9 0-12.4 5.6-12.4 12.5s5.6 12.4 12.5 12.4 12.4-5.6 12.4-12.4c-.1-6.9-5.6-12.5-12.5-12.5zm0 22.9c-5.8 0-10.4-4.7-10.4-10.5s4.7-10.4 10.5-10.4 10.3 4.7 10.3 10.5c0 5.8-4.7 10.4-10.4 10.4z"/></g></svg>